<svg width="200" height="200" viewBox="0 0 200 200" fill="none" xmlns="http://www.w3.org/2000/svg">
<path d="M99.9795 22C102.756 22.0001 105.482 22.7401 107.878 24.1426L160.201 54.7686C162.578 56.1638 164.548 58.1567 165.916 60.5488C167.284 62.9409 168.002 65.6496 168 68.4053V133.407C168.003 136.196 167.266 138.937 165.866 141.349C164.466 143.76 162.451 145.758 160.028 147.139L107.721 176.875C105.367 178.215 102.705 178.919 99.9971 178.919C97.2891 178.919 94.6279 178.214 92.2744 176.875L39.9668 147.139C35.0447 144.34 32 139.093 32 133.407V68.4053C31.997 65.65 32.7148 62.941 34.082 60.5488C35.4492 58.1569 37.4186 56.1644 39.794 54.7686L92.0811 24.1426C94.477 22.7401 97.2033 22 99.9795 22ZM99.9795 32.5195C99.0546 32.5195 98.1457 32.7658 97.3477 33.2334L45.0615 63.8594C43.4505 64.8061 42.4619 66.5327 42.4619 68.4053V133.407C42.4611 134.337 42.7061 135.251 43.1729 136.055C43.6396 136.859 44.3115 137.524 45.1192 137.984L97.4268 167.722C98.2107 168.169 99.0976 168.404 100 168.404C100.902 168.404 101.789 168.169 102.573 167.722L154.881 137.984C156.523 137.053 157.538 135.301 157.538 133.407V68.4053C157.538 66.5327 156.55 64.8006 154.938 63.8643L102.61 33.2334C101.812 32.7659 100.904 32.5196 99.9795 32.5195ZM131.907 74.1377C137.97 70.6854 143.143 79.7817 137.081 83.2236L105.246 101.709C105.262 101.882 105.346 102.029 105.346 102.201V144.377C105.346 145.764 104.794 147.094 103.813 148.075C102.833 149.056 101.502 149.607 100.115 149.607C98.728 149.607 97.397 149.056 96.416 148.075C95.4352 147.094 94.8839 145.764 94.8838 144.377V102.41L62.4014 83.8096C56.3389 80.3625 61.5118 71.2664 67.5742 74.7188L99.4609 92.9795L131.907 74.1377Z" fill="#006EB6"/>
</svg>
