<svg width="200" height="200" viewBox="0 0 200 200" fill="none" xmlns="http://www.w3.org/2000/svg">
<path d="M142.898 81.792C147.328 81.792 151.126 83.0581 154.291 85.5898C157.456 88.1217 159.988 91.9199 161.254 95.7178C162.52 99.5158 161.887 103.947 160.621 107.745C158.722 112.176 156.191 115.341 152.393 117.24L154.925 133.065C158.09 133.699 160.622 135.597 163.153 138.129C165.052 140.661 166.951 143.826 167.584 146.991C168.217 150.156 168.217 153.321 166.951 156.486C165.685 159.651 164.42 162.183 161.888 164.715C159.989 167.247 156.823 169.146 153.658 169.779C150.493 170.412 147.328 170.412 144.163 169.779C140.998 168.513 138.467 167.247 135.935 164.715C133.403 162.816 131.503 159.651 130.87 156.486L112.514 152.055C109.982 154.587 106.817 156.486 103.019 157.119C99.2209 157.752 95.4229 157.752 92.258 156.486C88.46 155.22 85.9276 153.321 83.3957 150.156C81.4967 146.991 79.5979 143.826 79.5978 140.028C79.5978 136.23 80.2303 133.065 81.4962 129.268C83.3952 126.103 85.9279 123.57 89.0929 121.671C92.2578 120.405 96.0558 119.139 99.8537 119.772C103.652 119.772 106.817 121.038 109.982 123.57L124.54 106.479C123.907 103.948 123.274 100.782 123.907 97.6172C123.907 94.4522 125.173 91.9197 127.072 89.3877C128.971 86.8559 131.503 84.9574 134.035 83.6914C137.2 82.4254 139.733 81.792 142.898 81.792ZM113.906 29C117.704 29.0001 120.236 31.5322 120.236 35.3301V68.8789L121.149 70.8555C121.152 70.8624 121.156 70.8691 121.159 70.876L125.595 79.9199C127.141 83.0722 125.839 86.8815 122.687 88.4277C119.534 89.9738 115.725 88.6716 114.179 85.5195L109.743 76.4756C109.64 76.2652 109.55 76.0513 109.472 75.8359L108.209 73.3096C107.576 72.0439 107.576 71.4104 107.576 70.1445V41.6602H82.256V70.1445C82.256 70.7774 82.2566 71.5375 81.8771 72.2969L81.4972 73.0566L58.8351 120.152L49.34 139.775L44.2765 150.156L43.8966 151.676C43.8967 152.309 44.0235 153.321 44.6564 153.954C45.283 154.581 46.1572 155.084 46.175 155.094C46.5547 155.22 46.9352 155.473 48.0744 155.6H70.3488C70.7605 155.517 71.1863 155.474 71.6222 155.474H81.4972C85.0628 155.474 87.9531 158.364 87.9533 161.93C87.9533 165.495 85.0629 168.386 81.4972 168.387H71.6222C71.1486 168.387 70.687 168.334 70.2423 168.237L70.2296 168.26H48.0744C45.5426 168.26 43.0104 167.627 41.1115 166.361C37.3135 164.462 34.148 161.297 32.882 156.866C31.616 152.435 31.6168 148.004 33.5158 144.206L48.4543 114.455L69.09 71.2842L69.5968 68.8789V35.3301C69.5968 34.0642 70.2295 32.1654 71.4953 30.8994C72.1283 30.2664 74.0272 29.0002 75.2931 29H113.906ZM149.228 145.092C148.595 145.092 147.328 145.093 146.695 145.726C146.062 145.726 145.429 146.358 144.796 146.991C144.163 147.624 144.163 148.258 143.53 148.891C142.898 149.524 142.898 150.789 142.898 151.422C142.898 152.055 142.897 153.321 143.53 153.954C143.53 154.587 144.163 155.221 144.796 155.854C145.429 156.487 146.062 156.486 146.695 157.119C147.328 157.752 148.595 157.752 149.228 157.752C151.126 157.752 152.392 157.119 153.658 155.854C154.924 154.588 155.558 153.321 155.558 151.422C155.558 149.523 154.924 148.257 153.658 146.991C152.392 145.725 151.127 145.092 149.228 145.092ZM98.5871 132.433C96.6883 132.433 95.4223 133.065 94.1564 134.331C92.8905 135.597 92.2581 136.863 92.258 138.762C92.258 140.661 92.8904 141.927 94.1564 143.193C95.4223 144.459 96.6883 145.092 98.5871 145.092C100.486 145.092 101.753 144.459 103.019 143.193C104.285 141.927 104.917 140.661 104.917 138.762C104.917 136.863 104.285 135.597 103.019 134.331C101.753 133.065 100.486 132.433 98.5871 132.433ZM117.577 134.964V140.028L132.137 143.826C134.036 139.395 137.834 135.597 142.265 133.065L140.365 119.14C137.833 119.14 135.301 117.873 133.402 116.607L117.577 134.964ZM142.898 94.4521C140.999 94.4521 139.733 95.0856 138.467 96.3516C137.201 97.6176 136.568 98.8832 136.568 100.782C136.568 102.681 137.201 103.947 138.467 105.213C139.733 106.479 140.999 107.112 142.898 107.112C144.797 107.112 146.062 106.479 147.328 105.213C148.594 103.947 149.228 102.681 149.228 100.782C149.228 98.8833 148.594 97.6175 147.328 96.3516C146.062 95.0856 144.797 94.4522 142.898 94.4521Z" fill="#006EB6"/>
</svg>
